<svg xmlns="http://www.w3.org/2000/svg" width="500" height="500" viewBox="0 0 500 500" fill="none">
  <g opacity="0.8">
    <path d="M250 60C147.157 60 64 143.157 64 246C64 348.843 147.157 432 250 432C352.843 432 436 348.843 436 246C436 143.157 352.843 60 250 60Z" fill="#E6F7FF" stroke="#4285F4" stroke-width="2"/>
    <path d="M250 100C169.471 100 104 165.471 104 246C104 326.529 169.471 392 250 392C330.529 392 396 326.529 396 246C396 165.471 330.529 100 250 100Z" stroke="#34A853" stroke-width="2"/>
    
    <!-- 数据流线 -->
    <path d="M104 246C104 246 170 200 250 200C330 200 396 246 396 246" stroke="#4285F4" stroke-width="2" stroke-dasharray="4 4"/>
    <path d="M104 246C104 246 170 292 250 292C330 292 396 246 396 246" stroke="#34A853" stroke-width="2" stroke-dasharray="4 4"/>
    
    <!-- 数据节点 -->
    <circle cx="250" cy="200" r="8" fill="#4285F4"/>
    <circle cx="250" cy="292" r="8" fill="#34A853"/>
    <circle cx="104" cy="246" r="8" fill="#4285F4"/>
    <circle cx="396" cy="246" r="8" fill="#34A853"/>
    
    <!-- 数据屏幕 -->
    <rect x="190" y="140" width="120" height="80" rx="4" fill="white" stroke="#4285F4" stroke-width="2"/>
    <rect x="200" y="150" width="100" height="60" rx="2" fill="#E6F7FF"/>
    <path d="M210 170H290" stroke="#4285F4" stroke-width="2"/>
    <path d="M210 180H270" stroke="#4285F4" stroke-width="2"/>
    <path d="M210 190H250" stroke="#4285F4" stroke-width="2"/>
    
    <!-- 数据库 -->
    <path d="M250 340C277.614 340 300 330.493 300 318.75C300 307.007 277.614 297.5 250 297.5C222.386 297.5 200 307.007 200 318.75C200 330.493 222.386 340 250 340Z" fill="white" stroke="#34A853" stroke-width="2"/>
    <path d="M200 318.75V350C200 361.046 222.386 370 250 370C277.614 370 300 361.046 300 350V318.75" stroke="#34A853" stroke-width="2"/>
    <path d="M210 330H290" stroke="#34A853" stroke-width="2" stroke-dasharray="2 2"/>
    
    <!-- 悬浮点 -->
    <circle cx="150" cy="150" r="10" fill="#4285F4" opacity="0.6"/>
    <circle cx="350" cy="150" r="15" fill="#34A853" opacity="0.6"/>
    <circle cx="150" cy="350" r="15" fill="#34A853" opacity="0.6"/>
    <circle cx="350" cy="350" r="10" fill="#4285F4" opacity="0.6"/>
    
    <!-- 连接线 -->
    <path d="M150 150L190 180" stroke="#4285F4" stroke-width="1" stroke-dasharray="2 2"/>
    <path d="M350 150L310 180" stroke="#34A853" stroke-width="1" stroke-dasharray="2 2"/>
    <path d="M150 350L200 340" stroke="#34A853" stroke-width="1" stroke-dasharray="2 2"/>
    <path d="M350 350L300 340" stroke="#4285F4" stroke-width="1" stroke-dasharray="2 2"/>
  </g>
</svg> 