<svg xmlns="http://www.w3.org/2000/svg" viewBox="0 0 24 24" width="100" height="100">
  <path fill="#FFFFFF" d="M17.5,10.5c0.2-2.4-0.1-5.8-3.5-7.5c-0.1-0.1-0.3-0.1-0.4,0c-0.1,0.1-0.2,0.2-0.1,0.4c0.3,1.1,0.2,2.3-0.4,3.3
    c-1.1,2-3.1,2.9-5.1,2.9c-0.8,0-1.5-0.1-2.3-0.3C5.5,9.1,5.3,9.1,5.2,9.2c-0.1,0.1-0.1,0.3,0,0.4C7.7,13.9,12,14.9,16,14
    c-0.1,0.1-0.2,0.1-0.2,0.2c-2.8,2.8-7.3,2.8-10.1,0c-0.2-0.2-0.5-0.2-0.7,0c-0.2,0.2-0.2,0.5,0,0.7c1.6,1.6,3.7,2.4,5.8,2.4
    c2.1,0,4.2-0.8,5.8-2.4c0.1-0.1,0.2-0.2,0.3-0.3C17.2,13.9,17.4,12.2,17.5,10.5z"/>
</svg>