<?xml version="1.0" encoding="UTF-8"?>
<svg width="128" height="128" viewBox="0 0 128 128" xmlns="http://www.w3.org/2000/svg">
  <!-- 背景层 -->
  <defs>
    <linearGradient id="logoGradient" x1="0%" y1="0%" x2="100%" y2="100%">
      <stop offset="0%" stop-color="#4CAF50" stop-opacity="1"/>
      <stop offset="100%" stop-color="#2E7D32" stop-opacity="1"/>
    </linearGradient>
    <clipPath id="circleClip">
      <circle cx="64" cy="64" r="56"/>
    </clipPath>
  </defs>
  
  <!-- 圆形背景 -->
  <circle cx="64" cy="64" r="60" fill="url(#logoGradient)" />
  
  <!-- 农业象征图案 -->
  <g transform="translate(32, 32)" fill="#FFFFFF" opacity="0.9">
    <path d="M32,0 C14.3,0 0,14.3 0,32 C0,49.7 14.3,64 32,64 C49.7,64 64,49.7 64,32 C64,14.3 49.7,0 32,0 Z M32,8 C45.3,8 56,18.7 56,32 C56,45.3 45.3,56 32,56 C18.7,56 8,45.3 8,32 C8,18.7 18.7,8 32,8 Z" fill-opacity="0.2"/>
    <!-- 稻穗图案 -->
    <path d="M42,18 C39.5,15.5 36.5,14 33.2,14 C29.9,14 26.9,15.5 24.5,18 L24,18.5 L23.5,18 C21,15.5 18,14 14.8,14 C11.5,14 8.5,15.5 6,18 L6,18.5 C8.5,21 11.5,22.5 14.8,22.5 C18,22.5 21,21 23.5,18.5 L24,18 L24.5,18.5 C26.9,21 29.9,22.5 33.2,22.5 C36.5,22.5 39.5,21 42,18.5 L42,18 Z" transform="translate(10, 10)" fill="#FFFFFF"/>
    <!-- 数字OA图案 -->
    <path d="M17,28 L47,28 C48.1,28 49,28.9 49,30 L49,50 C49,51.1 48.1,52 47,52 L17,52 C15.9,52 15,51.1 15,50 L15,30 C15,28.9 15.9,28 17,28 Z" fill="#FFFFFF"/>
    <rect x="19" y="32" width="28" height="4" rx="1" fill="url(#logoGradient)"/>
    <rect x="19" y="40" width="20" height="4" rx="1" fill="url(#logoGradient)"/>
    <rect x="19" y="48" width="24" height="2" rx="1" fill="url(#logoGradient)"/>
  </g>
  
  <!-- 环绕螺旋效果 -->
  <g clip-path="url(#circleClip)">
    <path d="M64,8 C33.1,8 8,33.1 8,64 C8,94.9 33.1,120 64,120 C94.9,120 120,94.9 120,64 C120,33.1 94.9,8 64,8 Z M64,16 C90.5,16 112,37.5 112,64 C112,90.5 90.5,112 64,112 C37.5,112 16,90.5 16,64 C16,37.5 37.5,16 64,16 Z" fill="#FFFFFF" fill-opacity="0.3"/>
    <circle cx="64" cy="16" r="4" fill="#FFFFFF"/>
    <circle cx="112" cy="64" r="4" fill="#FFFFFF"/>
    <circle cx="64" cy="112" r="4" fill="#FFFFFF"/>
    <circle cx="16" cy="64" r="4" fill="#FFFFFF"/>
  </g>
  
  <!-- 外环装饰 -->
  <circle cx="64" cy="64" r="60" stroke="#FFFFFF" stroke-width="2" fill="none" opacity="0.5"/>
  <circle cx="64" cy="64" r="56" stroke="#FFFFFF" stroke-width="1" fill="none" opacity="0.3"/>
</svg> 